0
SECTION
2
HEADER
9
$INSUNITS
70
4
9
$ACADVER
1
AC1014
9
$HANDSEED
5
FFFF
0
ENDSEC
0
SECTION
2
TABLES
0
TABLE
2
VPORT
5
8
100
AcDbSymbolTable
0
ENDTAB
0
TABLE
2
LTYPE
5
5
100
AcDbSymbolTable
0
LTYPE
5
14
100
AcDbSymbolTableRecord
100
AcDbLinetypeTableRecord
2
BYBLOCK
70
0
0
LTYPE
5
15
100
AcDbSymbolTableRecord
100
AcDbLinetypeTableRecord
2
BYLAYER
70
0
0
ENDTAB
0
TABLE
2
LAYER
5
2
100
AcDbSymbolTable
70
2
0
LAYER
5
50
100
AcDbSymbolTableRecord
100
AcDbLayerTableRecord
2
0
70
0
6
CONTINUOUS
0
ENDTAB
0
TABLE
2
STYLE
5
3
100
AcDbSymbolTable
70
1
0
STYLE
5
11
100
AcDbSymbolTableRecord
100
AcDbTextStyleTableRecord
2
STANDARD
70
0
0
ENDTAB
0
TABLE
2
VIEW
5
6
100
AcDbSymbolTable
70
0
0
ENDTAB
0
TABLE
2
UCS
5
7
100
AcDbSymbolTable
70
0
0
ENDTAB
0
TABLE
2
APPID
5
9
100
AcDbSymbolTable
70
2
0
APPID
5
12
100
AcDbSymbolTableRecord
100
AcDbRegAppTableRecord
2
ACAD
70
0
0
ENDTAB
0
TABLE
2
DIMSTYLE
5
A
100
AcDbSymbolTable
70
1
0
ENDTAB
0
TABLE
2
BLOCK_RECORD
5
1
100
AcDbSymbolTable
70
1
0
BLOCK_RECORD
5
1F
100
AcDbSymbolTableRecord
100
AcDbBlockTableRecord
2
*MODEL_SPACE
0
BLOCK_RECORD
5
1B
100
AcDbSymbolTableRecord
100
AcDbBlockTableRecord
2
*PAPER_SPACE
0
ENDTAB
0
ENDSEC
0
SECTION
2
BLOCKS
0
BLOCK
5
20
100
AcDbEntity
100
AcDbBlockBegin
2
*MODEL_SPACE
0
ENDBLK
5
21
100
AcDbEntity
100
AcDbBlockEnd
0
BLOCK
5
1C
100
AcDbEntity
100
AcDbBlockBegin
2
*PAPER_SPACE
0
ENDBLK
5
1D
100
AcDbEntity
100
AcDbBlockEnd
0
ENDSEC
0
SECTION
2
ENTITIES
0
LWPOLYLINE
5
100
100
AcDbEntity
8
0
100
AcDbPolyline
90
40
70
1
43
0.0
10
-369.25719432842635
20
-51.499999523161904
42
-0.41421356237309331
10
-367.75719432842635
20
-49.999999523161932
10
-51.242778004447331
20
-49.999999523161947
42
-0.41421356237308815
10
-49.742778004447324
20
-51.499999523161947
10
-49.742778004447324
20
-89.349999523173693
42
0.41421356237309331
10
-48.242778004447331
20
-90.84999952317375
10
-26.499986166437406
20
-90.849999523173395
42
-0.41421356237309076
10
-24.999986166437125
20
-92.349999523173665
10
-24.999986166437168
20
-405.49999952316205
42
-0.41421356237308898
10
-26.499986166437122
20
-406.99999952316205
10
-37.499986166437736
20
-406.99999952316205
42
0.41421356237309592
10
-38.999986166437743
20
-408.49999952316205
10
-38.999986166437765
20
-417.49999952316205
42
-0.41421356237309503
10
-40.499986166437751
20
-418.99999952316199
10
-184.32569512316303
20
-418.99999952316193
42
-0.41421356237313667
10
-185.82569512316292
20
-417.49999952316182
10
-185.82569512316098
20
-403.45013115917686
42
0.4142135623729355
10
-187.32569512315993
20
-401.95013115917556
10
-198.37620986292606
20
-401.95013115916873
42
-0.41421356237340717
10
-199.87620986292458
20
-400.45013115916669
10
-199.87620986291216
20
-392.70921801449731
42
0.41421356237308815
10
-201.3762098629096
20
-391.209218014469
10
-217.37620986291671
20
-391.20921801446787
42
0.41421356237358758
10
-218.87620986291921
20
-392.70921801446781
10
-218.87620986291918
20
-400.45011423651101
42
-0.41421356237310197
10
-220.37620986291921
20
-401.95011423651101
10
-253.02569549317181
20
-401.95011423651101
42
0.41421349012292674
10
-254.52569549317167
20
-403.45011386649475
10
-254.5256989589615
20
-417.4999998931782
42
-0.41421349012296832
10
-256.02569895896232
20
-418.99999952316284
10
-378.49998616643791
20
-418.99999952316199
42
-0.41421356237309503
10
-379.99998616643785
20
-417.49999952316205
10
-379.99998616643785
20
-408.49999952316205
42
0.41421356237309503
10
-381.49998616643785
20
-406.99999952316205
10
-392.49998616643722
20
-406.99999952316216
42
-0.41421356237308116
10
-393.99998616643728
20
-405.49999952316205
10
-393.99998616643711
20
-92.349999523174517
42
-0.41421356237303608
10
-392.49998616643745
20
-90.849999523174546
10
-370.75719432842675
20
-90.849999523171917
42
0.41421356237304996
10
-369.25719432842646
20
-89.349999523171931
0
ENDSEC
0
SECTION
2
OBJECTS
0
DICTIONARY
5
C
100
AcDbDictionary
3
ACAD_GROUP
350
D
3
ACAD_MLINESTYLE
350
17
0
DICTIONARY
5
D
100
AcDbDictionary
0
DICTIONARY
5
1A
330
C
100
AcDbDictionary
0
DICTIONARY
5
17
100
AcDbDictionary
0
ENDSEC
0
EOF
